# xmcd
#
# Track frame offsets: 
#        150
#        15068
#        31017
#        47610
#        61561
#        76201
#
# Disc length: 1225 seconds
#
# Revision: 0
# Processed by: cddbd v1.5.2PL0 Copyright (c) Steve Scherf et al.
# Submitted via: ExactAudioCopyFreeDBPlugin 1.0
#
DISCID=2b04c706
DTITLE=David Lee - Bringin' Hippie Back
DYEAR=2016
DGENRE=Country
TTITLE0=Bringin' Hippie Back
TTITLE1=In My Bones
TTITLE2=Kickin' It Old School
TTITLE3=Happy Place
TTITLE4=John Wayne
TTITLE5=Dysfunction Junction
EXTD=
EXTT0=
EXTT1=
EXTT2=
EXTT3=
EXTT4=
EXTT5=
PLAYORDER=
